<svg xmlns="http://www.w3.org/2000/svg" viewBox="0 0 1000 260" width="1000" height="260" role="img" aria-label="Kaohsiung skyline"><defs>
  <linearGradient id="gBld" x1="0" y1="0" x2="1" y2="0">
    <stop offset="0" stop-color="#1fd65f"/><stop offset="1" stop-color="#053322"/></linearGradient>
  <linearGradient id="gFar" x1="0" y1="0" x2="1" y2="0">
    <stop offset="0" stop-color="#0a5c2e"/><stop offset="1" stop-color="#02150c"/></linearGradient>
  <linearGradient id="g85" x1="0" y1="0" x2="0" y2="1">
    <stop offset="0" stop-color="#4dffa0"/><stop offset="0.5" stop-color="#12b060"/><stop offset="1" stop-color="#053d24"/></linearGradient>
  <linearGradient id="gWave" x1="0" y1="0" x2="0" y2="1">
    <stop offset="0" stop-color="#22ff88"/><stop offset="1" stop-color="#0a5c2e"/></linearGradient>
  <linearGradient id="gWave2" x1="0" y1="0" x2="0" y2="1">
    <stop offset="0" stop-color="#12b060"/><stop offset="1" stop-color="#053322"/></linearGradient>
  <linearGradient id="gCrane" x1="0" y1="0" x2="0" y2="1">
    <stop offset="0" stop-color="#1fd65f"/><stop offset="1" stop-color="#0a5c2e"/></linearGradient>
  <linearGradient id="gFade" x1="0" y1="0" x2="0" y2="1">
    <stop offset="0" stop-color="#010604" stop-opacity="0.1"/><stop offset="1" stop-color="#010604" stop-opacity="0.95"/></linearGradient>
  <radialGradient id="glow" cx="0.5" cy="0.1" r="0.9">
    <stop offset="0" stop-color="#00ff66" stop-opacity="0.13"/><stop offset="1" stop-color="#00ff66" stop-opacity="0"/></radialGradient>
  <clipPath id="water"><rect x="0" y="186" width="1000" height="74"/></clipPath>
</defs><rect x="0" y="0" width="1000" height="260" rx="10" fill="#010604"/><rect x="0" y="0" width="1000" height="260" rx="10" fill="url(#glow)"/><g id="city"><rect x="20.0" y="126.0" width="40.0" height="60.0" fill="url(#gFar)" opacity="0.7"/><rect x="70.0" y="94.0" width="30.0" height="92.0" fill="url(#gFar)" opacity="0.7"/><rect x="150.0" y="116.0" width="46.0" height="70.0" fill="url(#gFar)" opacity="0.7"/><rect x="210.0" y="76.0" width="34.0" height="110.0" fill="url(#gFar)" opacity="0.7"/><rect x="330.0" y="122.0" width="40.0" height="64.0" fill="url(#gFar)" opacity="0.7"/><rect x="560.0" y="86.0" width="36.0" height="100.0" fill="url(#gFar)" opacity="0.7"/><rect x="610.0" y="114.0" width="46.0" height="72.0" fill="url(#gFar)" opacity="0.7"/><rect x="680.0" y="66.0" width="34.0" height="120.0" fill="url(#gFar)" opacity="0.7"/><rect x="860.0" y="100.0" width="40.0" height="86.0" fill="url(#gFar)" opacity="0.7"/><rect x="915.0" y="126.0" width="50.0" height="60.0" fill="url(#gFar)" opacity="0.7"/><g opacity="0.95"><path d="M40,186 Q70,140 105,166 Q135,134 168,186 Z" fill="url(#gWave)"/><path d="M95,186 Q120,156 150,172 Q175,146 205,186 Z" fill="url(#gWave2)" opacity="0.9"/></g><rect x="255.0" y="108.0" width="30.0" height="78.0" fill="url(#gBld)" /><rect x="255.0" y="108.0" width="30.0" height="2.5" fill="#8dffc0" opacity="0.9"/><rect x="276" y="117" width="2.5" height="3.5" fill="#0f8" opacity="0.65"/><rect x="276" y="127" width="2.5" height="3.5" fill="#0f8" opacity="0.65"/><rect x="276" y="137" width="2.5" height="3.5" fill="#0f8" opacity="0.65"/><rect x="276" y="147" width="2.5" height="3.5" fill="#0f8" opacity="0.65"/><rect x="276" y="157" width="2.5" height="3.5" fill="#0f8" opacity="0.65"/><rect x="276" y="167" width="2.5" height="3.5" fill="#0f8" opacity="0.65"/><rect x="276" y="177" width="2.5" height="3.5" fill="#0f8" opacity="0.65"/><rect x="288.0" y="66.0" width="40.0" height="120.0" fill="url(#gBld)" /><rect x="288.0" y="66.0" width="40.0" height="2.5" fill="#8dffc0" opacity="0.9"/><rect x="355.0" y="126.0" width="26.0" height="60.0" fill="url(#gBld)" /><rect x="355.0" y="126.0" width="26.0" height="2.5" fill="#8dffc0" opacity="0.9"/><rect x="360" y="135" width="2.5" height="3.5" fill="#0f8" opacity="0.65"/><rect x="360" y="145" width="2.5" height="3.5" fill="#0f8" opacity="0.65"/><rect x="360" y="155" width="2.5" height="3.5" fill="#0f8" opacity="0.65"/><rect x="360" y="165" width="2.5" height="3.5" fill="#0f8" opacity="0.65"/><rect x="360" y="175" width="2.5" height="3.5" fill="#0f8" opacity="0.65"/><rect x="388.0" y="90.0" width="40.0" height="96.0" fill="url(#gBld)" /><rect x="388.0" y="90.0" width="40.0" height="2.5" fill="#8dffc0" opacity="0.9"/><rect x="417" y="99" width="2.5" height="3.5" fill="#0f8" opacity="0.65"/><rect x="417" y="109" width="2.5" height="3.5" fill="#0f8" opacity="0.65"/><rect x="417" y="119" width="2.5" height="3.5" fill="#0f8" opacity="0.65"/><rect x="417" y="129" width="2.5" height="3.5" fill="#0f8" opacity="0.65"/><rect x="417" y="139" width="2.5" height="3.5" fill="#0f8" opacity="0.65"/><rect x="417" y="149" width="2.5" height="3.5" fill="#0f8" opacity="0.65"/><rect x="417" y="159" width="2.5" height="3.5" fill="#0f8" opacity="0.65"/><rect x="417" y="169" width="2.5" height="3.5" fill="#0f8" opacity="0.65"/><rect x="417" y="179" width="2.5" height="3.5" fill="#0f8" opacity="0.65"/><rect x="720.0" y="116.0" width="30.0" height="70.0" fill="url(#gBld)" /><rect x="720.0" y="116.0" width="30.0" height="2.5" fill="#8dffc0" opacity="0.9"/><rect x="725" y="125" width="2.5" height="3.5" fill="#0f8" opacity="0.65"/><rect x="725" y="135" width="2.5" height="3.5" fill="#0f8" opacity="0.65"/><rect x="725" y="145" width="2.5" height="3.5" fill="#0f8" opacity="0.65"/><rect x="725" y="155" width="2.5" height="3.5" fill="#0f8" opacity="0.65"/><rect x="725" y="165" width="2.5" height="3.5" fill="#0f8" opacity="0.65"/><rect x="725" y="175" width="2.5" height="3.5" fill="#0f8" opacity="0.65"/><rect x="826.0" y="90.0" width="30.0" height="96.0" fill="url(#gBld)" /><rect x="826.0" y="90.0" width="30.0" height="2.5" fill="#8dffc0" opacity="0.9"/><rect x="847" y="99" width="2.5" height="3.5" fill="#0f8" opacity="0.65"/><rect x="847" y="109" width="2.5" height="3.5" fill="#0f8" opacity="0.65"/><rect x="847" y="119" width="2.5" height="3.5" fill="#0f8" opacity="0.65"/><rect x="847" y="129" width="2.5" height="3.5" fill="#0f8" opacity="0.65"/><rect x="847" y="139" width="2.5" height="3.5" fill="#0f8" opacity="0.65"/><rect x="847" y="149" width="2.5" height="3.5" fill="#0f8" opacity="0.65"/><rect x="847" y="159" width="2.5" height="3.5" fill="#0f8" opacity="0.65"/><rect x="847" y="169" width="2.5" height="3.5" fill="#0f8" opacity="0.65"/><rect x="847" y="179" width="2.5" height="3.5" fill="#0f8" opacity="0.65"/><rect x="421.0" y="160.0" width="118.0" height="26.0" fill="url(#g85)" /><rect x="421.0" y="58.0" width="22.0" height="128.0" fill="url(#g85)" /><rect x="517.0" y="58.0" width="22.0" height="128.0" fill="url(#g85)" /><rect x="443.0" y="58.0" width="20.0" height="12.0" fill="url(#g85)" /><rect x="497.0" y="58.0" width="20.0" height="12.0" fill="url(#g85)" /><rect x="463.0" y="44.0" width="34.0" height="142.0" fill="url(#g85)" /><polygon points="463,44 497,44 487,28 473,28" fill="url(#g85)"/><rect x="478.5" y="-8" width="3" height="36" fill="#0f8"/><circle cx="480" cy="-10" r="3.2" fill="#aaffcc"/><rect x="463" y="44" width="2.5" height="142" fill="#8dffc0" opacity="0.85"/><rect x="421" y="58" width="2" height="128" fill="#7dffb0" opacity="0.7"/><rect x="517" y="58" width="2" height="128" fill="#7dffb0" opacity="0.7"/><rect x="484" y="73" width="2.5" height="3.5" fill="#0f8" opacity="0.65"/><rect x="476" y="97" width="2.5" height="3.5" fill="#0f8" opacity="0.65"/><rect x="492" y="109" width="2.5" height="3.5" fill="#0f8" opacity="0.65"/><rect x="468" y="121" width="2.5" height="3.5" fill="#0f8" opacity="0.65"/><rect x="484" y="133" width="2.5" height="3.5" fill="#0f8" opacity="0.65"/><rect x="476" y="157" width="2.5" height="3.5" fill="#0f8" opacity="0.65"/><rect x="492" y="169" width="2.5" height="3.5" fill="#0f8" opacity="0.65"/><rect x="660.0" y="128.0" width="96.0" height="58.0" fill="url(#gBld)" /><rect x="681" y="137" width="2.5" height="3.5" fill="#0f8" opacity="0.65"/><rect x="721" y="137" width="2.5" height="3.5" fill="#0f8" opacity="0.65"/><rect x="681" y="147" width="2.5" height="3.5" fill="#0f8" opacity="0.65"/><rect x="721" y="147" width="2.5" height="3.5" fill="#0f8" opacity="0.65"/><rect x="681" y="157" width="2.5" height="3.5" fill="#0f8" opacity="0.65"/><rect x="721" y="157" width="2.5" height="3.5" fill="#0f8" opacity="0.65"/><rect x="681" y="167" width="2.5" height="3.5" fill="#0f8" opacity="0.65"/><rect x="721" y="167" width="2.5" height="3.5" fill="#0f8" opacity="0.65"/><rect x="681" y="177" width="2.5" height="3.5" fill="#0f8" opacity="0.65"/><rect x="721" y="177" width="2.5" height="3.5" fill="#0f8" opacity="0.65"/><g stroke-linecap="round"><line x1="682" y1="186" x2="700" y2="90" stroke="#0a7d4a" stroke-width="3"/><line x1="718" y1="186" x2="700" y2="90" stroke="#0a7d4a" stroke-width="3"/><line x1="700" y1="90" x2="740.0" y2="90.0" stroke="#1fd65f" stroke-width="1" opacity="0.7"/><line x1="700" y1="90" x2="734.6" y2="110.0" stroke="#1fd65f" stroke-width="1" opacity="0.7"/><line x1="700" y1="90" x2="720.0" y2="124.6" stroke="#1fd65f" stroke-width="1" opacity="0.7"/><line x1="700" y1="90" x2="700.0" y2="130.0" stroke="#1fd65f" stroke-width="1" opacity="0.7"/><line x1="700" y1="90" x2="680.0" y2="124.6" stroke="#1fd65f" stroke-width="1" opacity="0.7"/><line x1="700" y1="90" x2="665.4" y2="110.0" stroke="#1fd65f" stroke-width="1" opacity="0.7"/><line x1="700" y1="90" x2="660.0" y2="90.0" stroke="#1fd65f" stroke-width="1" opacity="0.7"/><line x1="700" y1="90" x2="665.4" y2="70.0" stroke="#1fd65f" stroke-width="1" opacity="0.7"/><line x1="700" y1="90" x2="680.0" y2="55.4" stroke="#1fd65f" stroke-width="1" opacity="0.7"/><line x1="700" y1="90" x2="700.0" y2="50.0" stroke="#1fd65f" stroke-width="1" opacity="0.7"/><line x1="700" y1="90" x2="720.0" y2="55.4" stroke="#1fd65f" stroke-width="1" opacity="0.7"/><line x1="700" y1="90" x2="734.6" y2="70.0" stroke="#1fd65f" stroke-width="1" opacity="0.7"/><circle cx="700" cy="90" r="40" fill="none" stroke="#22ff88" stroke-width="2.5"/><circle cx="700" cy="90" r="33" fill="none" stroke="#0a7d4a" stroke-width="1" opacity="0.6"/><circle cx="740.0" cy="90.0" r="2.4" fill="#aaffcc"/><circle cx="734.6" cy="110.0" r="2.4" fill="#aaffcc"/><circle cx="720.0" cy="124.6" r="2.4" fill="#aaffcc"/><circle cx="700.0" cy="130.0" r="2.4" fill="#aaffcc"/><circle cx="680.0" cy="124.6" r="2.4" fill="#aaffcc"/><circle cx="665.4" cy="110.0" r="2.4" fill="#aaffcc"/><circle cx="660.0" cy="90.0" r="2.4" fill="#aaffcc"/><circle cx="665.4" cy="70.0" r="2.4" fill="#aaffcc"/><circle cx="680.0" cy="55.4" r="2.4" fill="#aaffcc"/><circle cx="700.0" cy="50.0" r="2.4" fill="#aaffcc"/><circle cx="720.0" cy="55.4" r="2.4" fill="#aaffcc"/><circle cx="734.6" cy="70.0" r="2.4" fill="#aaffcc"/><circle cx="700" cy="90" r="4" fill="#8dffc0"/></g><g stroke="#12b060" fill="url(#gCrane)"><rect x="880.0" y="94.0" width="8.0" height="92.0" fill="url(#gCrane)" /><rect x="920.0" y="94.0" width="8.0" height="92.0" fill="url(#gCrane)" /><rect x="862.0" y="90.0" width="92.0" height="7.0" fill="url(#gCrane)" /><line x1="884" y1="94" x2="938" y2="70" stroke="#12b060" stroke-width="3"/><rect x="868.0" y="90.0" width="6.0" height="22.0" fill="#0a7d4a" /></g><g stroke="#12b060" fill="url(#gCrane)"><rect x="936.0" y="94.0" width="8.0" height="92.0" fill="url(#gCrane)" /><rect x="976.0" y="94.0" width="8.0" height="92.0" fill="url(#gCrane)" /><rect x="918.0" y="90.0" width="92.0" height="7.0" fill="url(#gCrane)" /><line x1="940" y1="94" x2="994" y2="70" stroke="#12b060" stroke-width="3"/><rect x="924.0" y="90.0" width="6.0" height="22.0" fill="#0a7d4a" /></g></g><rect x="0" y="186" width="1000" height="2.5" fill="#00ff66" opacity="0.9"/><rect x="0" y="186" width="1000" height="3" fill="#7dffb0" opacity="0.5"/><g clip-path="url(#water)"><use href="#city" transform="matrix(1,0,0,-1,0,372)" opacity="0.20"/><rect x="0" y="186" width="1000" height="74" fill="url(#gFade)"/><rect x="0" y="194" width="1000" height="2.5" fill="#010604" opacity="0.55"/><rect x="0" y="202" width="1000" height="2.5" fill="#010604" opacity="0.55"/><rect x="0" y="210" width="1000" height="2.5" fill="#010604" opacity="0.55"/><rect x="0" y="218" width="1000" height="2.5" fill="#010604" opacity="0.55"/><rect x="0" y="226" width="1000" height="2.5" fill="#010604" opacity="0.55"/><rect x="0" y="234" width="1000" height="2.5" fill="#010604" opacity="0.55"/></g><text x="26" y="246" font-family="'Share Tech Mono', monospace" font-size="15" fill="#4dffa6" opacity="0.9">clarke@kaohsiung:~$ <tspan fill="#8dffc0">./hello_world</tspan></text></svg>