<svg xmlns="http://www.w3.org/2000/svg" viewBox="0 0 1000 240" width="1000" height="240" role="img" aria-label="Taipei skyline">
<defs>
  <linearGradient id="t101" x1="0" y1="0" x2="0" y2="1">
    <stop offset="0" stop-color="#00ff88"/>
    <stop offset="1" stop-color="#053d24"/>
  </linearGradient>
  <linearGradient id="bld" x1="0" y1="0" x2="0" y2="1">
    <stop offset="0" stop-color="#0a7d4a"/>
    <stop offset="1" stop-color="#042b19"/>
  </linearGradient>
  <radialGradient id="glow" cx="0.5" cy="0" r="0.9">
    <stop offset="0" stop-color="#00ff41" stop-opacity="0.14"/>
    <stop offset="1" stop-color="#00ff41" stop-opacity="0"/>
  </radialGradient>
  <linearGradient id="ground" x1="0" y1="0" x2="0" y2="1">
    <stop offset="0" stop-color="#00ff41" stop-opacity="0.35"/>
    <stop offset="1" stop-color="#00ff41" stop-opacity="0"/>
  </linearGradient>
</defs><rect x="0" y="0" width="1000" height="240" rx="10" fill="#010604"/><rect x="0" y="0" width="1000" height="240" rx="10" fill="url(#glow)"/><rect x="30" y="135" width="46" height="70" fill="url(#bld)"/><rect x="63" y="154" width="3" height="4" fill="#0f6" opacity="0.7"/><rect x="45" y="165" width="3" height="4" fill="#0f6" opacity="0.7"/><rect x="54" y="198" width="3" height="4" fill="#0f6" opacity="0.7"/><rect x="82" y="95" width="34" height="110" fill="url(#bld)"/><rect x="98.0" y="79" width="2" height="16" fill="#0a5"/><rect x="106" y="125" width="3" height="4" fill="#0f6" opacity="0.7"/><rect x="88" y="136" width="3" height="4" fill="#0f6" opacity="0.7"/><rect x="97" y="169" width="3" height="4" fill="#0f6" opacity="0.7"/><rect x="120" y="150" width="40" height="55" fill="url(#bld)"/><rect x="153" y="169" width="3" height="4" fill="#0f6" opacity="0.7"/><rect x="135" y="180" width="3" height="4" fill="#0f6" opacity="0.7"/><rect x="165" y="110" width="30" height="95" fill="url(#bld)"/><rect x="189" y="140" width="3" height="4" fill="#0f6" opacity="0.7"/><rect x="171" y="151" width="3" height="4" fill="#0f6" opacity="0.7"/><rect x="180" y="184" width="3" height="4" fill="#0f6" opacity="0.7"/><rect x="198" y="75" width="52" height="130" fill="url(#bld)"/><rect x="204" y="83" width="3" height="4" fill="#0f6" opacity="0.7"/><rect x="231" y="105" width="3" height="4" fill="#0f6" opacity="0.7"/><rect x="213" y="116" width="3" height="4" fill="#0f6" opacity="0.7"/><rect x="240" y="138" width="3" height="4" fill="#0f6" opacity="0.7"/><rect x="222" y="149" width="3" height="4" fill="#0f6" opacity="0.7"/><rect x="204" y="160" width="3" height="4" fill="#0f6" opacity="0.7"/><rect x="231" y="182" width="3" height="4" fill="#0f6" opacity="0.7"/><rect x="213" y="193" width="3" height="4" fill="#0f6" opacity="0.7"/><rect x="255" y="133" width="26" height="72" fill="url(#bld)"/><rect x="267.0" y="117" width="2" height="16" fill="#0a5"/><rect x="261" y="152" width="3" height="4" fill="#0f6" opacity="0.7"/><rect x="270" y="185" width="3" height="4" fill="#0f6" opacity="0.7"/><rect x="286" y="105" width="44" height="100" fill="url(#bld)"/><rect x="310" y="124" width="3" height="4" fill="#0f6" opacity="0.7"/><rect x="292" y="135" width="3" height="4" fill="#0f6" opacity="0.7"/><rect x="319" y="157" width="3" height="4" fill="#0f6" opacity="0.7"/><rect x="301" y="168" width="3" height="4" fill="#0f6" opacity="0.7"/><rect x="335" y="145" width="30" height="60" fill="url(#bld)"/><rect x="350" y="175" width="3" height="4" fill="#0f6" opacity="0.7"/><rect x="620" y="117" width="40" height="88" fill="url(#bld)"/><rect x="644" y="147" width="3" height="4" fill="#0f6" opacity="0.7"/><rect x="626" y="158" width="3" height="4" fill="#0f6" opacity="0.7"/><rect x="653" y="180" width="3" height="4" fill="#0f6" opacity="0.7"/><rect x="635" y="191" width="3" height="4" fill="#0f6" opacity="0.7"/><rect x="665" y="85" width="30" height="120" fill="url(#bld)"/><rect x="679.0" y="69" width="2" height="16" fill="#0a5"/><rect x="680" y="104" width="3" height="4" fill="#0f6" opacity="0.7"/><rect x="689" y="137" width="3" height="4" fill="#0f6" opacity="0.7"/><rect x="671" y="148" width="3" height="4" fill="#0f6" opacity="0.7"/><rect x="680" y="181" width="3" height="4" fill="#0f6" opacity="0.7"/><rect x="700" y="141" width="48" height="64" fill="url(#bld)"/><rect x="733" y="149" width="3" height="4" fill="#0f6" opacity="0.7"/><rect x="715" y="160" width="3" height="4" fill="#0f6" opacity="0.7"/><rect x="742" y="182" width="3" height="4" fill="#0f6" opacity="0.7"/><rect x="724" y="193" width="3" height="4" fill="#0f6" opacity="0.7"/><rect x="755" y="97" width="34" height="108" fill="url(#bld)"/><rect x="770" y="105" width="3" height="4" fill="#0f6" opacity="0.7"/><rect x="779" y="138" width="3" height="4" fill="#0f6" opacity="0.7"/><rect x="761" y="149" width="3" height="4" fill="#0f6" opacity="0.7"/><rect x="770" y="182" width="3" height="4" fill="#0f6" opacity="0.7"/><rect x="795" y="127" width="44" height="78" fill="url(#bld)"/><rect x="810" y="135" width="3" height="4" fill="#0f6" opacity="0.7"/><rect x="819" y="168" width="3" height="4" fill="#0f6" opacity="0.7"/><rect x="801" y="179" width="3" height="4" fill="#0f6" opacity="0.7"/><rect x="845" y="73" width="28" height="132" fill="url(#bld)"/><rect x="858.0" y="57" width="2" height="16" fill="#0a5"/><rect x="860" y="92" width="3" height="4" fill="#0f6" opacity="0.7"/><rect x="851" y="136" width="3" height="4" fill="#0f6" opacity="0.7"/><rect x="860" y="169" width="3" height="4" fill="#0f6" opacity="0.7"/><rect x="878" y="113" width="46" height="92" fill="url(#bld)"/><rect x="911" y="132" width="3" height="4" fill="#0f6" opacity="0.7"/><rect x="893" y="143" width="3" height="4" fill="#0f6" opacity="0.7"/><rect x="902" y="176" width="3" height="4" fill="#0f6" opacity="0.7"/><rect x="884" y="187" width="3" height="4" fill="#0f6" opacity="0.7"/><rect x="930" y="139" width="40" height="66" fill="url(#bld)"/><rect x="945" y="147" width="3" height="4" fill="#0f6" opacity="0.7"/><rect x="954" y="180" width="3" height="4" fill="#0f6" opacity="0.7"/><rect x="936" y="191" width="3" height="4" fill="#0f6" opacity="0.7"/><rect x="446" y="190" width="68" height="15" fill="url(#t101)"/><polygon points="446,190 463,180 497,180 514,190" fill="url(#t101)"/><polygon points="463,180 497,180 505,165 455,165" fill="url(#t101)"/><polygon points="463,165 497,165 505,150 455,150" fill="url(#t101)"/><polygon points="463,150 497,150 505,135 455,135" fill="url(#t101)"/><polygon points="463,135 497,135 505,120 455,120" fill="url(#t101)"/><polygon points="463,120 497,120 505,105 455,105" fill="url(#t101)"/><polygon points="463,105 497,105 505,90 455,90" fill="url(#t101)"/><polygon points="463,90 497,90 505,75 455,75" fill="url(#t101)"/><polygon points="463,75 497,75 505,60 455,60" fill="url(#t101)"/><polygon points="463,60 497,60 486,48 474,48" fill="url(#t101)"/><rect x="478.5" y="8" width="3" height="40" fill="#0f6"/><circle cx="480" cy="6" r="3" fill="#7dffb0"/><rect x="0" y="205" width="1000" height="2" fill="#00ff41" opacity="0.9"/><rect x="0" y="205" width="1000" height="26" fill="url(#ground)"/><text x="24" y="224" font-family="'Share Tech Mono', monospace" font-size="15" fill="#4dffa6" opacity="0.9">clarke@taipei:~$ <tspan fill="#7dffb0">./hello_world</tspan></text></svg>